# xmcd
#
# Track frame offsets:
#	150
#	18211
#	41303
#	66441
#	87343
#	106269
#	131109
#	150397
#	169881
#	193547
#	216990
#	237741
#	261352
#	284757
#
# Disc length: 4035 seconds
#
# Revision: 3629884422
# Processed by: cddbd v1.5.2PL0 Copyright (c) Steve Scherf et al.
# Submitted via: EZCDAudioConverter 8.0.2.1
#
DISCID=cf0fc10e
DTITLE=Đan Trường - Vol 01. Album Nhạc Tuyển
DYEAR=1999
DGENRE=World Pop
TTITLE0=Kiếp ve sầu
TTITLE1=Cuộc tình cay đắng
TTITLE2=Giấc mơ mùa đông
TTITLE3=Bước chân lẻ loi
TTITLE4=Mưa trên cuộc tình
TTITLE5=Phượng hồng
TTITLE6=Còn lại một mình
TTITLE7=Yêu trong mộng mơ
TTITLE8=Lung linh giọt mưa
TTITLE9=Tâm hồn xao động
TTITLE10=Hãy để mưa rơi
TTITLE11=Tình vỗ cánh bay
TTITLE12=Đừng giấu đi trầm hương
TTITLE13=Yêu em quay cuồng
EXTD=
EXTT0=
EXTT1=
EXTT2=
EXTT3=
EXTT4=
EXTT5=
EXTT6=
EXTT7=
EXTT8=
EXTT9=
EXTT10=
EXTT11=
EXTT12=
EXTT13=
PLAYORDER=
